<?xml version="1.0" encoding="UTF-8"?>
<svg version="1.1" xmlns="http://www.w3.org/2000/svg" width="512" height="512">
<path d="M0 0 C9.3576516 6.64091404 14.16338885 14.4250301 16.68359375 25.5859375 C17.50396127 35.73798559 14.52654205 44.75332421 8.27734375 52.64453125 C3.21323936 58.19832498 -3.12272046 61.3547089 -10.19140625 63.7109375 C-8.95390625 64.62359375 -8.95390625 64.62359375 -7.69140625 65.5546875 C28.18773528 92.55743781 49.4605175 130.56812316 56.12548828 174.81469727 C58.73958764 195.14528216 57.62590718 216.64385326 52.26171875 236.4296875 C50.59100952 242.99063163 50.19335561 249.40638014 49.87109375 256.1484375 C47.23453392 299.35491911 30.75649597 336.18125018 -0.19140625 366.7109375 C0.57042969 366.93007813 1.33226562 367.14921875 2.1171875 367.375 C13.92281461 371.00069821 21.77006367 375.64848131 27.80859375 386.7109375 C31.73617753 395.71223271 32.06267465 404.91065163 28.8984375 414.19921875 C24.57796786 424.15643014 17.71527971 430.48165001 7.67578125 434.58203125 C-1.9222338 437.39926239 -11.8355139 436.00696568 -20.609375 431.45703125 C-28.85510468 426.38804835 -33.44266036 419.77930183 -36.5078125 410.66015625 C-37.97212532 404.34269239 -37.84393348 397.96426021 -36.19140625 391.7109375 C-37.35414063 392.23042969 -38.516875 392.74992187 -39.71484375 393.28515625 C-54.41877191 399.7366112 -69.19381887 404.7141414 -85.19140625 406.7109375 C-86.00738281 406.82179688 -86.82335937 406.93265625 -87.6640625 407.046875 C-128.73213497 411.74399612 -172.2082277 400.41131347 -204.95214844 375.01220703 C-210.89861267 370.25848378 -216.57265708 365.20779196 -222.046875 359.91796875 C-226.20823856 356.04053618 -230.60905348 353.17818857 -235.50390625 350.3359375 C-242.30101012 346.38565623 -248.2849515 341.92198397 -254.19140625 336.7109375 C-255.05507812 335.95683594 -255.91875 335.20273437 -256.80859375 334.42578125 C-259.30001111 332.21834004 -261.7535473 329.97728879 -264.19140625 327.7109375 C-264.86816406 327.08832031 -265.54492188 326.46570313 -266.2421875 325.82421875 C-286.62676585 306.33835928 -302.35377316 277.5134265 -307.19140625 249.7109375 C-307.82755859 250.27361328 -307.82755859 250.27361328 -308.4765625 250.84765625 C-311.49598041 253.48218133 -314.54386183 256.06056947 -317.75390625 258.4609375 C-318.27082031 258.84765625 -318.78773438 259.234375 -319.3203125 259.6328125 C-327.35426919 264.2619817 -338.29675824 263.9173551 -347.20703125 262.09375 C-355.43129109 259.17129289 -362.03877763 253.46335768 -366.12890625 245.7734375 C-370.61046482 235.60076475 -371.33973343 226.12778802 -367.56640625 215.5234375 C-363.53336183 206.38380447 -356.61394092 200.29085242 -347.4296875 196.6015625 C-338.71550427 194.20489932 -328.51288764 194.6207204 -320.3203125 198.48828125 C-317.07628624 200.35136422 -314.13840191 202.40459307 -311.19140625 204.7109375 C-308.98060643 202.50013768 -309.29414633 197.66929807 -308.87890625 194.5859375 C-304.17515852 161.84855061 -290.12717819 132.58729315 -267.19140625 108.7109375 C-266.70897461 108.19208984 -266.22654297 107.67324219 -265.72949219 107.13867188 C-245.60094401 85.52696752 -221.19978195 72.32664793 -193.34545898 63.22460938 C-185.6748037 60.68674796 -179.18616961 57.85862871 -172.328125 53.58203125 C-162.47253471 47.70304277 -151.53769643 44.32161907 -140.50390625 41.3984375 C-139.59068604 41.15593262 -138.67746582 40.91342773 -137.73657227 40.66357422 C-125.05683506 37.47136211 -112.55910664 36.32891912 -99.50390625 36.3984375 C-98.80685577 36.39992798 -98.1098053 36.40141846 -97.39163208 36.4029541 C-80.63763665 36.46711905 -65.23896984 38.98542176 -49.19140625 43.7109375 C-49.51367188 42.88078125 -49.8359375 42.050625 -50.16796875 41.1953125 C-52.66679246 32.68786689 -52.45131576 21.97533389 -48.56640625 13.94921875 C-42.90658212 4.7359255 -35.5007316 -0.67846986 -25.15234375 -3.9296875 C-16.54264873 -5.50755989 -7.58338116 -4.46081245 0 0 Z " fill="#FDFDFC" transform="translate(387.19140625,40.2890625)"/>
<path d="M0 0 C9.3576516 6.64091404 14.16338885 14.4250301 16.68359375 25.5859375 C17.50396127 35.73798559 14.52654205 44.75332421 8.27734375 52.64453125 C3.21323936 58.19832498 -3.12272046 61.3547089 -10.19140625 63.7109375 C-8.95390625 64.62359375 -8.95390625 64.62359375 -7.69140625 65.5546875 C28.18773528 92.55743781 49.4605175 130.56812316 56.12548828 174.81469727 C58.73958764 195.14528216 57.62590718 216.64385326 52.26171875 236.4296875 C50.59100952 242.99063163 50.19335561 249.40638014 49.87109375 256.1484375 C47.23453392 299.35491911 30.75649597 336.18125018 -0.19140625 366.7109375 C0.57042969 366.93007813 1.33226562 367.14921875 2.1171875 367.375 C13.92281461 371.00069821 21.77006367 375.64848131 27.80859375 386.7109375 C31.73617753 395.71223271 32.06267465 404.91065163 28.8984375 414.19921875 C24.57796786 424.15643014 17.71527971 430.48165001 7.67578125 434.58203125 C-1.9222338 437.39926239 -11.8355139 436.00696568 -20.609375 431.45703125 C-28.85510468 426.38804835 -33.44266036 419.77930183 -36.5078125 410.66015625 C-37.97212532 404.34269239 -37.84393348 397.96426021 -36.19140625 391.7109375 C-37.35414063 392.23042969 -38.516875 392.74992187 -39.71484375 393.28515625 C-54.41877191 399.7366112 -69.19381887 404.7141414 -85.19140625 406.7109375 C-86.00738281 406.82179688 -86.82335937 406.93265625 -87.6640625 407.046875 C-128.73213497 411.74399612 -172.2082277 400.41131347 -204.95214844 375.01220703 C-210.89861267 370.25848378 -216.57265708 365.20779196 -222.046875 359.91796875 C-226.20823856 356.04053618 -230.60905348 353.17818857 -235.50390625 350.3359375 C-242.30101012 346.38565623 -248.2849515 341.92198397 -254.19140625 336.7109375 C-255.05507812 335.95683594 -255.91875 335.20273437 -256.80859375 334.42578125 C-259.30001111 332.21834004 -261.7535473 329.97728879 -264.19140625 327.7109375 C-264.86816406 327.08832031 -265.54492188 326.46570313 -266.2421875 325.82421875 C-286.62676585 306.33835928 -302.35377316 277.5134265 -307.19140625 249.7109375 C-307.82755859 250.27361328 -307.82755859 250.27361328 -308.4765625 250.84765625 C-311.49598041 253.48218133 -314.54386183 256.06056947 -317.75390625 258.4609375 C-318.27082031 258.84765625 -318.78773438 259.234375 -319.3203125 259.6328125 C-327.35426919 264.2619817 -338.29675824 263.9173551 -347.20703125 262.09375 C-355.43129109 259.17129289 -362.03877763 253.46335768 -366.12890625 245.7734375 C-370.61046482 235.60076475 -371.33973343 226.12778802 -367.56640625 215.5234375 C-363.53336183 206.38380447 -356.61394092 200.29085242 -347.4296875 196.6015625 C-338.71550427 194.20489932 -328.51288764 194.6207204 -320.3203125 198.48828125 C-317.07628624 200.35136422 -314.13840191 202.40459307 -311.19140625 204.7109375 C-308.98060643 202.50013768 -309.29414633 197.66929807 -308.87890625 194.5859375 C-304.17515852 161.84855061 -290.12717819 132.58729315 -267.19140625 108.7109375 C-266.70897461 108.19208984 -266.22654297 107.67324219 -265.72949219 107.13867188 C-245.60094401 85.52696752 -221.19978195 72.32664793 -193.34545898 63.22460938 C-185.6748037 60.68674796 -179.18616961 57.85862871 -172.328125 53.58203125 C-162.47253471 47.70304277 -151.53769643 44.32161907 -140.50390625 41.3984375 C-139.59068604 41.15593262 -138.67746582 40.91342773 -137.73657227 40.66357422 C-125.05683506 37.47136211 -112.55910664 36.32891912 -99.50390625 36.3984375 C-98.80685577 36.39992798 -98.1098053 36.40141846 -97.39163208 36.4029541 C-80.63763665 36.46711905 -65.23896984 38.98542176 -49.19140625 43.7109375 C-49.51367188 42.88078125 -49.8359375 42.050625 -50.16796875 41.1953125 C-52.66679246 32.68786689 -52.45131576 21.97533389 -48.56640625 13.94921875 C-42.90658212 4.7359255 -35.5007316 -0.67846986 -25.15234375 -3.9296875 C-16.54264873 -5.50755989 -7.58338116 -4.46081245 0 0 Z M-230.48046875 107.640625 C-250.98779204 132.45542258 -264.09922286 168.16647301 -264.4296875 200.1796875 C-264.43961731 200.96898148 -264.44954712 201.75827545 -264.45977783 202.57148743 C-264.7961779 236.29476781 -260.05893245 266.88332643 -243.19140625 296.7109375 C-242.8464209 297.33468262 -242.50143555 297.95842773 -242.14599609 298.60107422 C-225.48679728 328.52974004 -200.26560811 351.65153676 -170.19140625 367.7109375 C-168.76634766 368.484375 -168.76634766 368.484375 -167.3125 369.2734375 C-151.378445 377.63228602 -130.62063358 374.09563819 -113.51171875 371.11230469 C-111.45115652 370.75586905 -109.38406508 370.43765002 -107.31640625 370.125 C-90.06463377 367.21187175 -73.4317916 360.16318578 -58.19140625 351.7109375 C-57.56186035 351.36450195 -56.93231445 351.01806641 -56.28369141 350.66113281 C-14.66184932 327.48015273 13.50219032 288.2711474 26.50073242 242.88989258 C32.65198692 220.08960388 37.45513011 189.99699298 26.37109375 168.2109375 C26.02401367 167.52660645 25.67693359 166.84227539 25.31933594 166.13720703 C18.30262567 152.70232477 9.02874569 140.8428873 -1.19140625 129.7109375 C-1.66126953 129.1957959 -2.13113281 128.6806543 -2.61523438 128.14990234 C-20.48641279 108.79360166 -43.00418758 95.63838729 -67.19140625 85.7109375 C-68.12597656 85.31390625 -69.06054688 84.916875 -70.0234375 84.5078125 C-117.16102536 65.8012422 -192.28789254 70.48495131 -230.48046875 107.640625 Z " fill="#FEEF00" transform="translate(387.19140625,40.2890625)"/>
<path d="M0 0 C1.07484146 -0.00571014 2.14968292 -0.01142029 3.25709534 -0.01730347 C4.4367688 -0.01842133 5.61644226 -0.01953918 6.8318634 -0.02069092 C8.07456497 -0.02565582 9.31726654 -0.03062073 10.59762573 -0.03573608 C14.01165237 -0.04785272 17.42561764 -0.05530685 20.8396585 -0.05974674 C22.97873366 -0.06268196 25.11780351 -0.06678796 27.25687599 -0.07125092 C33.96633796 -0.08493565 40.67578771 -0.09459335 47.38526267 -0.09845281 C55.09670933 -0.10291394 62.807977 -0.12036644 70.5193693 -0.1494534 C76.49755332 -0.17120801 82.47568755 -0.18116463 88.45391065 -0.18249393 C92.01472536 -0.18353364 95.57537209 -0.1892588 99.13614464 -0.20731354 C134.99466653 -0.37876898 134.99466653 -0.37876898 149.24909973 6.39044189 C149.90958313 6.69417725 150.57006653 6.9979126 151.25056458 7.31085205 C162.43434913 12.64025934 169.28530682 19.81213223 174.18659973 31.20294189 C177.7289964 41.77084492 176.75105039 53.83355263 172.81159973 64.14044189 C172.50609192 64.95641846 172.20058411 65.77239502 171.88581848 66.61309814 C166.06483194 79.96961634 154.25910985 89.24549756 141.81159973 96.14044189 C140.82159973 96.14044189 139.83159973 96.14044189 138.81159973 96.14044189 C139.63402161 97.15880127 140.45644348 98.17716064 141.30378723 99.22637939 C154.77009296 116.18034685 163.78556632 134.21007122 171.42878723 154.39044189 C175.47236264 165.01015464 179.31823686 171.81153331 188.81159973 178.14044189 C190.23201794 180.98127831 190.12612245 182.99521467 189.81159973 186.14044189 C187.28595924 189.50796255 184.76726719 190.87268746 180.81159973 192.14044189 C178.23047483 192.33149096 175.75845887 192.4242037 173.17903137 192.4151001 C172.05122505 192.42276649 172.05122505 192.42276649 170.90063477 192.43058777 C168.42426004 192.44444625 165.94816479 192.44352989 163.47175598 192.44122314 C161.74449562 192.44511204 160.01723621 192.44944711 158.28997803 192.45420837 C154.67288612 192.46166246 151.05589184 192.46138513 147.438797 192.45611572 C142.81075541 192.45032114 138.18311402 192.46725564 133.55513859 192.4904604 C129.98885779 192.5052141 126.42267302 192.50606723 122.85636711 192.50295067 C121.15038192 192.50346302 119.44439124 192.50868465 117.73843575 192.51876259 C115.3498824 192.53114211 112.96210418 192.52432681 110.57356262 192.51275635 C109.8736319 192.52040009 109.17370117 192.52804382 108.45256042 192.53591919 C103.85485764 192.48685721 100.70031334 191.59196309 96.81159973 189.14044189 C94.2990939 185.37168314 94.28143887 183.60894055 94.81159973 179.14044189 C97.00115488 176.0385721 99.21900359 173.63694136 102.12409973 171.20294189 C104.59157789 168.18713526 104.03829878 165.9664854 103.81159973 162.14044189 C101.10817562 151.05640304 95.48498261 140.58176148 90.11579895 130.5881958 C89.26818821 128.99737865 88.44042119 127.3957717 87.63630676 125.78253174 C86.54601313 123.61274876 85.38258638 121.50337731 84.18659973 119.39044189 C83.88278381 118.75243652 83.5789679 118.11443115 83.26594543 117.45709229 C81.92305896 115.24606464 81.13666376 114.34250108 78.81159973 113.14044189 C73.42512283 112.6146031 68.20410188 112.78258524 62.81159973 113.14044189 C62.82787712 120.45497199 62.88266803 127.76848853 62.96418762 135.08258057 C62.98737829 137.57046944 63.00176581 140.05845664 63.00715637 142.54644775 C63.01643753 146.12397616 63.05741384 149.69995568 63.10456848 153.27716064 C63.10063583 154.38879074 63.09670319 155.50042084 63.09265137 156.64573669 C63.15841246 162.94020406 63.15841246 162.94020406 66.22956848 168.2913208 C67.08163879 168.90153076 67.93370911 169.51174072 68.81159973 170.14044189 C69.47804504 170.61868408 70.14449036 171.09692627 70.83113098 171.58966064 C71.42281067 171.99829346 72.01449036 172.40692627 72.62409973 172.82794189 C74.89694353 174.73435772 75.70898792 175.68123586 76.36238098 178.60528564 C76.46413352 182.25231088 76.35862359 184.99292569 74.77253723 188.32012939 C68.37933689 194.25485322 56.87105329 192.46848159 48.71003723 192.47637939 C47.14400616 192.48281573 45.57797626 192.4895447 44.01194763 192.49655151 C40.74233714 192.50847751 37.47283198 192.5122368 34.20320129 192.51104736 C30.02240312 192.51084356 25.84227997 192.5382296 21.66164207 192.57259178 C18.43248916 192.59486129 15.20349933 192.59888503 11.9742775 192.59782791 C10.43295067 192.60018056 8.89161911 192.60898516 7.3503685 192.62449265 C5.19422483 192.64417072 3.03954618 192.63831107 0.88337708 192.62628174 C-0.95240402 192.63055679 -0.95240402 192.63055679 -2.82527161 192.63491821 C-6.87651476 192.03926934 -9.01788692 190.68952496 -12.18840027 188.14044189 C-14.65679048 184.43785658 -14.85377307 181.43588656 -14.18840027 177.14044189 C-12.18890376 173.62132804 -10.05627627 171.97803011 -6.56340027 170.14044189 C-2.7697811 167.89237128 -2.38863067 167.20805241 -1.18840027 163.14044189 C-0.88568056 160.38949015 -0.88568056 160.38949015 -0.92097473 157.44769287 C-0.90817978 155.74435539 -0.90817978 155.74435539 -0.89512634 154.00660706 C-0.89603271 152.77008896 -0.89693909 151.53357086 -0.89787292 150.25958252 C-0.8911557 148.95015182 -0.88443848 147.64072113 -0.8775177 146.29161072 C-0.85988118 142.70695589 -0.85516343 139.12239659 -0.85388613 135.53770256 C-0.85246308 133.2971841 -0.84819067 131.05668982 -0.84289169 128.81617737 C-0.82440193 120.99732931 -0.8162201 113.17854937 -0.8177948 105.35968018 C-0.81899718 98.07447428 -0.79787345 90.78956418 -0.76630747 83.50443316 C-0.74015449 77.24526849 -0.72942703 70.98620053 -0.73070562 64.72698164 C-0.73121538 60.99045368 -0.72552437 57.25418892 -0.70434952 53.51771545 C-0.68138517 49.35203812 -0.69048192 45.18702434 -0.70256042 41.02130127 C-0.69132141 39.78478317 -0.6800824 38.54826508 -0.66850281 37.27427673 C-0.67689178 36.13871841 -0.68528076 35.0031601 -0.69392395 33.83319092 C-0.69283442 32.84875755 -0.69174488 31.86432419 -0.69062233 30.85005951 C-1.47726433 26.56803164 -3.97932283 24.11398476 -7.29386902 21.44512939 C-8.6896294 20.48668981 -10.08546354 19.52835764 -11.48136902 18.57012939 C-14.28434708 16.22255509 -14.22438352 13.8217331 -14.62590027 10.26544189 C-14.60737261 7.75031181 -14.50448536 6.54955203 -12.95402527 4.54278564 C-8.74306205 0.96763618 -5.36988309 0.01708189 0 0 Z " fill="#342D2C" transform="translate(179.1884002685547,159.85955810546875)"/>
<path d="M0 0 C-0.96679688 0.6290625 -1.93359375 1.258125 -2.9296875 1.90625 C-44.86753711 29.38761558 -72.88194998 68.71005815 -83.23828125 117.9140625 C-84.65586842 124.73798309 -85.16654844 131.51975298 -85.23828125 138.46875 C-85.24821106 139.25804398 -85.25814087 140.04733795 -85.26837158 140.86054993 C-85.60477165 174.58383031 -80.8675262 205.17238893 -64 235 C-63.65501465 235.62374512 -63.3100293 236.24749023 -62.95458984 236.89013672 C-43.46890115 271.89666204 -13.18836233 295.78112613 23 312 C23 312.33 23 312.66 23 313 C-18.54094614 310.90489141 -55.71097357 294.18978698 -86 266 C-86.67804688 265.37609375 -87.35609375 264.7521875 -88.0546875 264.109375 C-108.43806731 244.62646578 -124.16297703 215.79898257 -129 188 C-129.63615234 188.56267578 -129.63615234 188.56267578 -130.28515625 189.13671875 C-133.30457416 191.77124383 -136.35245558 194.34963197 -139.5625 196.75 C-140.07941406 197.13671875 -140.59632813 197.5234375 -141.12890625 197.921875 C-149.16286294 202.5510442 -160.10535199 202.2064176 -169.015625 200.3828125 C-177.23988484 197.46035539 -183.84737138 191.75242018 -187.9375 184.0625 C-192.41905857 173.88982725 -193.14832718 164.41685052 -189.375 153.8125 C-185.34195558 144.67286697 -178.42253467 138.57991492 -169.23828125 134.890625 C-160.52409802 132.49396182 -150.32148139 132.9097829 -142.12890625 136.77734375 C-138.88487999 138.64042672 -135.94699566 140.69365557 -133 143 C-130.78920018 140.78920018 -131.10274008 135.95836057 -130.6875 132.875 C-125.98375227 100.13761311 -111.93577194 70.87635565 -89 47 C-88.51756836 46.48115234 -88.03513672 45.96230469 -87.53808594 45.42773438 C-70.82099723 27.47886018 -26.63497163 -8.87832388 0 0 Z " fill="#009A4C" transform="translate(209,102)"/>
<path d="M0 0 C9.3576516 6.64091404 14.16338885 14.4250301 16.68359375 25.5859375 C17.50396127 35.73798559 14.52654205 44.75332421 8.27734375 52.64453125 C3.21323936 58.19832498 -3.12272046 61.3547089 -10.19140625 63.7109375 C-9.36640625 64.319375 -8.54140625 64.9278125 -7.69140625 65.5546875 C28.18773528 92.55743781 49.4605175 130.56812316 56.12548828 174.81469727 C58.49307934 193.2281179 57.57788661 212.56153421 53.80859375 230.7109375 C53.545625 231.98195313 53.28265625 233.25296875 53.01171875 234.5625 C51.68774342 240.33124965 51.68774342 240.33124965 50.80859375 242.7109375 C50.14859375 243.0409375 49.48859375 243.3709375 48.80859375 243.7109375 C48.72222656 242.43863281 48.63585937 241.16632813 48.546875 239.85546875 C46.87693491 217.9719017 42.04857279 196.29101864 31.80859375 176.7109375 C31.14859375 177.0409375 30.48859375 177.3709375 29.80859375 177.7109375 C29.06416016 176.16986328 29.06416016 176.16986328 28.3046875 174.59765625 C19.31693278 156.17833461 7.97714138 140.46563046 -6.19140625 125.7109375 C-6.72491699 125.1540625 -7.25842773 124.5971875 -7.80810547 124.0234375 C-24.37010861 107.05497618 -45.45108658 95.63407724 -67.19140625 86.7109375 C-68.12597656 86.31390625 -69.06054688 85.916875 -70.0234375 85.5078125 C-109.66884504 69.77451691 -156.83380619 72.53808568 -195.69140625 88.8984375 C-204.93565419 92.90544343 -213.72982834 97.61901194 -222.41821289 102.70874023 C-224.31155687 103.77884584 -226.23905392 104.7534178 -228.19140625 105.7109375 C-217.39215133 88.80124966 -201.22887217 75.90557489 -184.77270508 64.84912109 C-183.03841719 63.66516186 -183.03841719 63.66516186 -181.19140625 61.7109375 C-182.51140625 61.3809375 -183.83140625 61.0509375 -185.19140625 60.7109375 C-170.81791271 52.1796984 -156.69589825 45.69378556 -140.50390625 41.3984375 C-139.5905249 41.15585205 -138.67714355 40.9132666 -137.73608398 40.66333008 C-125.05633934 37.47167623 -112.55902622 36.32891955 -99.50390625 36.3984375 C-98.80685577 36.39992798 -98.1098053 36.40141846 -97.39163208 36.4029541 C-80.63763665 36.46711905 -65.23896984 38.98542176 -49.19140625 43.7109375 C-49.51367188 42.88078125 -49.8359375 42.050625 -50.16796875 41.1953125 C-52.66679246 32.68786689 -52.45131576 21.97533389 -48.56640625 13.94921875 C-42.90658212 4.7359255 -35.5007316 -0.67846986 -25.15234375 -3.9296875 C-16.54264873 -5.50755989 -7.58338116 -4.46081245 0 0 Z " fill="#E52129" transform="translate(387.19140625,40.2890625)"/>
<path d="M0 0 C7.68316745 2.63696855 12.68896336 7.93562683 16.44921875 15.03125 C20.43541962 24.67618357 20.36767988 34.19853238 16.37890625 43.82421875 C11.20609373 54.06207685 3.01127147 60.54598839 -7.80859375 64.296875 C-13.00131313 65.85666523 -17.81193618 66.54409102 -23.24609375 66.484375 C-24.31472656 66.47535156 -25.38335937 66.46632813 -26.484375 66.45703125 C-27.29261719 66.44542969 -28.10085937 66.43382812 -28.93359375 66.421875 C-29.00981191 58.85968499 -29.06226444 51.29759449 -29.09838867 43.73510742 C-29.11345219 41.1637807 -29.13390695 38.59247957 -29.15991211 36.02124023 C-29.19640136 32.32008538 -29.21334496 28.619271 -29.2265625 24.91796875 C-29.24204636 23.77291367 -29.25753021 22.62785858 -29.27348328 21.44810486 C-29.2749073 14.65710935 -29.08810189 9.00180027 -24.3984375 3.6796875 C-16.99058406 -1.81462835 -8.95249445 -1.76427321 0 0 Z " fill="#FCFCFC" transform="translate(270.93359375,182.578125)"/>
<path d="M0 0 C1.32 0.66 2.64 1.32 4 2 C4 2.33 4 2.66 4 3 C-0.455 3.495 -0.455 3.495 -5 4 C-3.35 2.68 -1.7 1.36 0 0 Z " fill="#BF312B" transform="translate(207,98)"/>
</svg>
